<?xml version="1.0" encoding="UTF-8"?>
<svg id="Capa_1" data-name="Capa 1" xmlns="http://www.w3.org/2000/svg" viewBox="0 0 600 600">
  <defs>
    <style>
      .cls-1 {
        fill: white;
      }
    </style>
  </defs>
  <path class="cls-1" d="M355.88,57h-48.62c-71.16,0-129.06,57.89-129.06,129.06v51.06c0,42.91,21.4,82.95,57.25,107.1,.99,.67,1.99,1.32,3,1.96,11.74,7.45,18.75,20.14,18.75,33.95v36.89c0,4.14,3.36,7.5,7.5,7.5h133.73c4.14,0,7.5-3.35,7.5-7.5v-36.89c0-13.81,7.01-26.51,18.76-33.96,1.01-.64,2.01-1.29,3-1.96,35.85-24.15,57.25-64.19,57.25-107.1v-51.06c0-71.16-57.89-129.06-129.06-129.06Zm36.91,152.12c-2.93-2.93-7.67-2.93-10.6,0l-47.17,47.17v-16.89c0-31.69,25.78-57.47,57.47-57.47h27.49v27.49c0,31.69-25.78,57.47-57.47,57.47h-16.89l47.17-47.17c2.93-2.93,2.93-7.68,0-10.6Zm-72.77,27.18l-52.17-52.17c-2.93-2.93-7.67-2.93-10.6,0-2.93,2.93-2.93,7.68,0,10.6l52.17,52.17h-16.89c-31.69,0-57.47-25.78-57.47-57.47v-27.49h27.49c31.69,0,57.47,25.78,57.47,57.47v16.89Zm149.93,.81c0,37.91-18.93,73.3-50.63,94.66-.88,.59-1.77,1.17-2.66,1.74-16.1,10.21-25.72,27.64-25.72,46.62v29.4h-55.92v-127.64h27.49c39.96,0,72.46-32.51,72.46-72.47v-34.98c0-4.14-3.36-7.5-7.5-7.5h-34.98c-25.17,0-47.36,12.91-60.35,32.44-8.72-30.23-36.58-52.43-69.58-52.43h-34.98c-4.14,0-7.5,3.36-7.5,7.5v34.98c0,39.96,32.51,72.47,72.47,72.47h27.49v147.63h-47.82v-29.4c0-18.98-9.61-36.4-25.71-46.61-.9-.57-1.78-1.15-2.66-1.74-31.71-21.36-50.64-56.75-50.64-94.66v-51.06c0-62.9,51.17-114.07,114.07-114.07h48.62c62.9,0,114.07,51.17,114.07,114.07v51.06Z"/>
  <path class="cls-1" d="M398.43,446h-133.72c-4.14,0-7.5,3.36-7.5,7.5s3.36,7.5,7.5,7.5h133.72c4.14,0,7.5-3.35,7.5-7.5s-3.36-7.5-7.5-7.5Z"/>
  <path class="cls-1" d="M398.43,476.39h-133.72c-4.14,0-7.5,3.36-7.5,7.5s3.36,7.5,7.5,7.5h133.72c4.14,0,7.5-3.35,7.5-7.5s-3.36-7.5-7.5-7.5Z"/>
  <path class="cls-1" d="M377.16,506.78h-91.17c-4.14,0-7.5,3.35-7.5,7.5s3.36,7.5,7.5,7.5h91.17c4.14,0,7.5-3.35,7.5-7.5s-3.36-7.5-7.5-7.5Z"/>
</svg>