<?xml version="1.0" standalone="no"?>
<!DOCTYPE svg PUBLIC "-//W3C//DTD SVG 20010904//EN"
 "http://www.w3.org/TR/2001/REC-SVG-20010904/DTD/svg10.dtd">
<svg version="1.0" xmlns="http://www.w3.org/2000/svg"
 width="300.000000pt" height="257.000000pt" viewBox="0 0 300.000000 257.000000"
 preserveAspectRatio="xMidYMid meet">
<metadata>
Created by potrace 1.10, written by Peter Selinger 2001-2011
</metadata>
<g transform="translate(0.000000,257.000000) scale(0.100000,-0.100000)"
fill="white" stroke="none">
<path d="M2104 2206 c-287 -20 -302 -22 -337 -46 -39 -27 -45 -41 -24 -58 10
-9 22 -5 48 13 32 22 50 25 339 44 168 11 305 19 306 18 7 -12 395 -1090 392
-1092 -2 -1 -127 -10 -278 -19 -151 -9 -289 -19 -307 -22 -21 -3 -118 -68
-283 -189 -138 -102 -254 -185 -258 -185 -4 0 -95 241 -202 536 -107 295 -196
540 -198 544 -1 4 16 19 38 35 41 28 46 39 31 64 -7 11 -17 8 -51 -19 l-41
-33 -329 -21 -329 -21 -258 -189 c-142 -104 -262 -193 -267 -197 -5 -5 80
-255 204 -596 117 -323 214 -590 216 -592 2 -2 106 72 231 165 125 92 246 180
268 196 44 30 -4 25 515 58 l175 12 255 187 c140 103 260 191 267 194 7 4 157
17 335 28 178 12 325 23 327 25 2 2 -92 268 -210 591 l-214 588 -30 1 c-16 1
-165 -8 -331 -20z m-809 -496 c7 -19 29 -79 48 -132 l36 -98 -42 -10 c-23 -6
-59 -16 -79 -21 -27 -7 -38 -15 -38 -29 0 -29 9 -30 90 -11 70 16 75 19 72 41
-1 14 65 -159 147 -385 83 -225 149 -410 148 -411 -1 0 -146 -10 -322 -21
l-321 -21 -244 -180 c-135 -99 -248 -178 -252 -174 -3 4 -33 81 -66 172 l-60
165 45 57 c40 51 43 59 32 79 -12 23 -12 23 -55 -26 -38 -45 -44 -48 -50 -30
-5 11 -61 164 -125 340 -109 297 -116 321 -100 336 9 9 121 94 249 188 211
154 238 171 275 172 23 0 155 9 292 19 319 23 305 24 320 -20z"/>
<path d="M1048 1362 c-83 -46 -82 -46 -69 -71 11 -20 12 -20 64 10 28 17 60
33 70 36 18 6 22 29 9 50 -5 8 -26 1 -74 -25z"/>
<path d="M791 1161 c-55 -64 -58 -72 -37 -90 11 -9 25 2 71 54 47 54 55 68 45
80 -7 8 -16 15 -20 15 -4 0 -30 -27 -59 -59z"/>
<path d="M600 925 c-43 -54 -50 -68 -40 -80 7 -8 16 -15 20 -15 5 0 32 29 60
65 43 54 50 68 40 80 -7 8 -16 15 -20 15 -5 0 -32 -29 -60 -65z"/>
<path d="M1509 2191 c-95 -19 -169 -108 -169 -205 0 -22 11 -68 25 -100 25
-62 130 -241 169 -289 l22 -27 58 87 c70 108 145 256 152 303 9 52 -12 116
-52 160 -54 60 -128 86 -205 71z m86 -125 c53 -23 79 -89 54 -139 -19 -38 -51
-57 -97 -57 -114 0 -143 150 -38 196 39 17 40 17 81 0z"/>
<path d="M1538 1503 c-45 -4 -48 -6 -48 -33 0 -27 2 -28 33 -25 17 3 53 7 80
10 42 6 47 9 47 31 0 26 2 26 -112 17z"/>
<path d="M1750 1487 c0 -27 7 -29 123 -40 35 -3 37 -1 37 25 0 24 -4 28 -27
28 -16 0 -52 3 -80 6 -52 7 -53 6 -53 -19z"/>
<path d="M2030 1457 c0 -22 6 -26 40 -31 22 -3 58 -9 80 -12 38 -5 40 -4 40
19 0 29 -8 33 -97 42 -62 7 -63 7 -63 -18z"/>
<path d="M2290 1407 c0 -24 4 -26 58 -32 31 -3 67 -8 78 -10 17 -4 23 1 27 20
2 14 2 27 -2 29 -3 2 -41 7 -83 11 l-78 7 0 -25z"/>
<path d="M2550 1357 c0 -24 3 -26 68 -32 37 -4 74 -7 82 -8 9 -1 16 8 18 26 3
23 0 27 -21 27 -13 0 -52 3 -86 6 -61 7 -61 7 -61 -19z"/>
</g>
</svg>
